<svg xmlns:xlink="http://www.w3.org/1999/xlink" width="100" height="100" viewBox="0 0 100 100" fill="none" xmlns="http://www.w3.org/2000/svg">
                         <style>
                            @keyframes spinGear { from { transform: rotate(0deg); } to { transform: rotate(360deg); } }
                            .animate-spin-slow { transform-origin: center; animation: spinGear 8s linear infinite; transform-box: fill-box; }
                            .animate-spin-reverse { transform-origin: center; animation: spinGear 6s linear infinite reverse; transform-box: fill-box; }
                         </style>
                         <path d="M25 60 C25 70 35 75 45 75 H70 C80 75 85 65 85 60 C85 50 80 45 75 45 C75 35 65 30 55 30 C45 30 35 35 35 45 C25 45 25 50 25 60 Z" stroke="#818CF8" stroke-width="2" fill="none"/>
                         <g class="animate-spin-slow">
                             <path d="M30 30 L35 30 L35 25 L38 25 L38 30 L43 30 L43 33 L38 33 L38 38 L35 38 L35 33 L30 33 Z" stroke="#6366F1" stroke-width="2" fill="#1E293B" transform="scale(3) translate(-10, -10)"/>
                             <circle cx="30" cy="30" r="12" stroke="#6366F1" stroke-width="2" stroke-dasharray="4 2"/>
                             <circle cx="30" cy="30" r="5" fill="#6366F1"/>
                         </g>
                         <g class="animate-spin-reverse">
                            <circle cx="70" cy="70" r="10" stroke="#A5B4FC" stroke-width="2" stroke-dasharray="3 3"/>
                            <circle cx="70" cy="70" r="4" fill="#A5B4FC"/>
                         </g>
                    </svg>